<svg width="400" height="400">
<rect fill="white" stroke="black" x="0" y="0" width="400" height="400" />
<circle cx="200" cy="200" r="150" stroke-width="3" stroke="black" fill="white"/>
<polygon points="200.0,50.0 350.0,200.0 200.0,350.0 50.0,200.00000000000003" fill="none" stroke="black" stroke-width="1"/>
<circle cx="200.0" cy="50.0" r="10" stroke-width="3" stroke="black" fill="white"/>
<circle cx="200" cy="200" r="106.06601717798213" stroke-width="3" stroke="black" fill="white"/>
<polygon points="275.0,125.0 275.0,275.0 125.0,275.0 124.99999999999999,125.0" fill="none" stroke="black" stroke-width="1"/>
<path d="M 350.0 200.0 A 106.06601717798213 106.06601717798213 0 0 1 275.0 275.0" stroke-width="3" stroke="black" fill="none"/>
<path d="M 200.0 350.0 A 237.17082451262846 237.17082451262846 0 0 1 275.0 125.0" stroke-width="3" stroke="black" fill="none"/>
<path d="M 200.0 350.0 A 106.06601717798213 106.06601717798213 0 0 1 125.0 275.0" stroke-width="3" stroke="black" fill="none"/>
<path d="M 50.0 200.00000000000003 A 106.06601717798215 106.06601717798215 0 0 1 124.99999999999999 125.0" stroke-width="3" stroke="black" fill="none"/>
</svg>